#!OML:ASF F:\VICON\USERDATA\INSTALL\rory3\rory3.ASF
:FULLY-SPECIFIED
:DEGREES
269
root 2.87544 18.2136 5.40974 -174.585 -16.8431 181.168
lowerback 11.5713 3.74488 3.14234
upperback 1.81615 5.223 0.443509
thorax -4.32218 2.46929 -2.06948
lowerneck -21.5422 -7.50742 -10.8128
upperneck 23.7963 -8.70901 4.98465
head 12.127 -4.36819 2.14046
rclavicle 3.33958e-014 2.82274e-014
rhumerus 45.5827 -4.00047 -53.2504
rradius 44.3394
rwrist 46.4398
rhand -21.3326 -1.62873
rfingers 7.12502
rthumb 5.05317 -31.5485
lclavicle 3.33958e-014 2.82274e-014
lhumerus -21.8271 -13.2269 87.9311
lradius 73.7935
lwrist -17.5747
lhand -17.9371 26.5312
lfingers 7.12502
lthumb 8.33101 56.3469
rfemur -2.68223 -5.07032 29.955
rtibia 7.95357
rfoot -7.65211 -6.58211
rtoes 17.3214
lfemur -74.4973 -4.41996 -23.3822
ltibia 82.08
lfoot -15.6946 -12.1379
ltoes 6.27758
270
root 2.85331 18.2117 5.38131 -174.402 -16.2412 181.071
lowerback 11.4073 3.81909 3.07646
upperback 1.83763 5.30683 0.421855
thorax -4.20865 2.51515 -2.0537
lowerneck -21.6611 -7.30301 -10.8193
upperneck 24.0895 -8.43676 4.99348
head 12.2406 -4.25344 2.19107
rclavicle -2.25621e-014 7.15625e-015
rhumerus 45.7555 -3.80767 -53.5959
rradius 44.7376
rwrist 46.5092
rhand -20.8971 -1.65106
rfingers 7.12502
rthumb 5.47374 -31.5604
lclavicle -2.25621e-014 7.15625e-015
lhumerus -20.5794 -14.0021 87.8596
lradius 74.4235
lwrist -18.0497
lhand -18.7656 26.0788
lfingers 7.12502
lthumb 7.53144 55.9247
rfemur -2.73426 -4.45463 29.7537
rtibia 8.04183
rfoot -7.67242 -6.54681
rtoes 17.5446
lfemur -74.6541 -4.07065 -23.4492
ltibia 82.3695
lfoot -15.7972 -11.8316
ltoes 4.85141
271
root 2.84499 18.2045 5.3702 -174.457 -16.3173 181.092
lowerback 11.7278 3.66795 3.18724
upperback 1.80742 5.13079 0.472558
thorax -4.42136 2.41911 -2.06315
lowerneck -21.5262 -7.11411 -10.8048
upperneck 24.2442 -8.20094 4.94084
head 12.2498 -4.16564 2.2149
rclavicle 1.42131e-014 9.14409e-015
rhumerus 45.8623 -3.6432 -54.0054
rradius 45.1413
rwrist 46.6732
rhand -20.3933 -1.55771
rfingers 7.12502
rthumb 5.96009 -31.4539
lclavicle 1.42131e-014 9.14409e-015
lhumerus -19.2908 -14.8469 87.7375
lradius 75.1012
lwrist -18.3612
lhand -19.8099 25.4317
lfingers 7.12502
lthumb 6.52335 55.3112
rfemur -2.91682 -4.52071 29.7624
rtibia 8.64374
rfoot -8.01343 -6.45271
rtoes 18.0446
lfemur -74.6786 -4.26853 -23.3765
ltibia 82.5726
lfoot -15.6691 -11.7032
ltoes 3.94688
272
root 2.81197 18.2269 5.31304 -174.124 -14.8493 180.784
lowerback 11.0087 4.06814 2.72189
upperback 1.89444 5.58076 0.359634
thorax -3.94274 2.66365 -1.92529
lowerneck -21.4965 -6.9232 -10.6564
upperneck 24.4867 -7.97219 4.78288
head 12.3031 -4.08188 2.17293
rclavicle 7.35503e-015 7.95139e-015
rhumerus 45.9658 -3.48213 -54.4716
rradius 45.5542
rwrist 46.8809
rhand -19.792 -1.38105
rfingers 7.12502
rthumb 6.54059 -31.26
lclavicle 7.35503e-015 7.95139e-015
lhumerus -17.9165 -15.7015 87.5983
lradius 75.6723
lwrist -18.9824
lhand -20.4937 25.1297
lfingers 7.12502
lthumb 5.86316 55.0286
rfemur -3.20876 -3.06494 29.195
rtibia 9.25528
rfoot -8.24918 -6.39241
rtoes 17.8383
lfemur -74.6771 -3.11158 -23.7588
ltibia 82.8117
lfoot -16.0802 -11.3656
ltoes 3.58328
273
root 2.82288 18.2204 5.34368 -174.308 -16.1508 180.772
lowerback 12.0572 3.44113 3.01843
upperback 1.78804 4.81725 0.460858
thorax -4.65358 2.25954 -1.96046
lowerneck -21.6515 -6.7298 -10.6419
upperneck 24.8502 -7.72054 4.77052
head 12.4528 -3.98014 2.20777
rclavicle -4.00551e-014 -4.77083e-015
rhumerus 46.0705 -3.25342 -54.9247
rradius 46.2749
rwrist 47.037
rhand -19.1141 -1.33466
rfingers 7.12502
rthumb 7.19505 -31.1923
lclavicle -4.00551e-014 -4.77083e-015
lhumerus -16.4642 -16.4024 87.4106
lradius 76.3135
lwrist -19.5546
lhand -20.6836 25.3427
lfingers 7.12502
lthumb 5.67987 55.2466
rfemur -3.50394 -4.35595 29.3262
rtibia 9.87028
rfoot -8.45125 -6.3499
rtoes 16.8037
lfemur -74.6591 -4.47855 -23.662
ltibia 82.7902
lfoot -15.5875 -11.2908
ltoes 3.2404
274
root 2.81151 18.2265 5.33116 -174.185 -16.0405 180.685
lowerback 12.1481 3.35134 2.97941
upperback 1.77404 4.69643 0.468105
thorax -4.7285 2.1984 -1.91995
lowerneck -21.7796 -6.57843 -10.5592
upperneck 25.2055 -7.54348 4.71182
head 12.5964 -3.91199 2.20107
rclavicle 6.45056e-014 -1.59028e-015
rhumerus 46.1495 -3.07696 -55.2811
rradius 47.1966
rwrist 47.1826
rhand -18.5026 -1.4725
rfingers 7.12502
rthumb 7.78526 -31.3092
lclavicle 6.45056e-014 -1.59028e-015
lhumerus -14.8911 -17.1719 87.118
lradius 77.0145
lwrist -19.7209
lhand -20.7389 26.101
lfingers 7.12502
lthumb 5.62648 56.0063
rfemur -3.88538 -4.2277 29.1946
rtibia 10.526
rfoot -8.63175 -6.25991
rtoes 16.211
lfemur -74.7603 -4.54392 -23.7171
ltibia 82.9215
lfoot -15.5519 -11.0821
ltoes 3.57068
275
root 2.79727 18.2244 5.31526 -174.14 -15.7958 180.803
lowerback 12.2066 3.33751 3.12077
upperback 1.77705 4.69823 0.518477
thorax -4.75029 2.19529 -1.95
lowerneck -21.7525 -6.46334 -10.4962
upperneck 25.4234 -7.44319 4.7298
head 12.6665 -3.86984 2.21646
rclavicle 9.74045e-015 4.37326e-015
rhumerus 46.2997 -3.00424 -55.6832
rradius 47.7911
rwrist 47.4147
rhand -17.9953 -1.57366
rfingers 7.12502
rthumb 8.27492 -31.3916
lclavicle 9.74045e-015 4.37326e-015
lhumerus -13.0652 -18.2242 86.7017
lradius 77.4141
lwrist -19.7239
lhand -20.8112 27.0699
lfingers 7.12502
lthumb 5.55667 56.977
rfemur -4.298 -4.08248 29.2659
rtibia 11.3602
rfoot -8.91463 -6.05795
rtoes 15.7947
lfemur -74.8781 -4.44435 -23.5799
ltibia 83.1011
lfoot -15.5805 -10.8884
ltoes 3.50219
276
root 2.78276 18.2191 5.29986 -174.149 -15.5902 180.988
lowerback 12.3072 3.30514 3.32356
upperback 1.81793 4.68162 0.600256
thorax -4.75399 2.18114 -1.97977
lowerneck -21.9203 -6.34714 -10.4272
upperneck 25.7872 -7.33168 4.75012
head 12.8334 -3.82086 2.23002
rclavicle -1.55052e-014 1.59028e-015
rhumerus 46.5246 -2.97177 -56.1949
rradius 48.1468
rwrist 47.6891
rhand -17.648 -1.52427
rfingers 7.12502
rthumb 8.61006 -31.3287
lclavicle -1.55052e-014 1.59028e-015
lhumerus -11.1677 -19.1546 86.2386
lradius 77.7067
lwrist -20.1728
lhand -19.9974 26.9165
lfingers 7.12502
lthumb 6.34228 56.8016
rfemur -4.49279 -3.94834 29.4045
rtibia 11.7946
rfoot -8.99225 -5.99215
rtoes 15.4608
lfemur -74.9828 -4.37024 -23.3907
ltibia 83.3379
lfoot -15.5895 -10.6949
ltoes 3.59918
277
root 2.76648 18.2171 5.28455 -174.097 -15.5463 180.996
lowerback 12.4752 3.20473 3.40049
upperback 1.78293 4.56761 0.653192
thorax -4.88799 2.11928 -1.96228
lowerneck -22.0538 -6.18166 -10.3926
upperneck 26.2412 -7.14584 4.73628
head 13.025 -3.75305 2.25079
rclavicle 8.11041e-014 -4.09496e-014
rhumerus 46.5896 -2.82502 -56.6941
rradius 48.601
rwrist 47.875
rhand -17.2547 -1.54803
rfingers 7.12502
rthumb 8.9896 -31.3365
lclavicle 8.11041e-014 -4.09496e-014
lhumerus -9.72529 -19.5872 85.9657
lradius 78.449
lwrist -20.7979
lhand -19.5738 26.5786
lfingers 7.12502
lthumb 6.75122 56.451
rfemur -4.66196 -3.95252 29.3622
rtibia 12.1644
rfoot -9.08225 -5.89137
rtoes 15.8208
lfemur -75.0689 -4.48881 -23.4221
ltibia 83.5424
lfoot -15.6432 -10.3831
ltoes 3.11915
278
root 2.74456 18.2221 5.26182 -173.948 -15.1458 180.808
lowerback 12.4411 3.19855 3.24432
upperback 1.75713 4.53988 0.632608
thorax -4.90855 2.10887 -1.89157
lowerneck -21.9261 -5.98244 -10.4247
upperneck 26.5081 -6.91429 4.74891
head 13.0886 -3.67135 2.30656
rclavicle 5.04913e-014 1.51076e-014
rhumerus 46.6299 -2.58211 -57.1976
rradius 49.1425
rwrist 47.9991
rhand -16.8396 -1.45616
rfingers 7.12502
rthumb 9.39015 -31.227
lclavicle 5.04913e-014 1.51076e-014
lhumerus -8.31141 -19.938 85.5931
lradius 79.2365
lwrist -20.9796
lhand -20.8369 26.1162
lfingers 7.12502
lthumb 5.5318 56.024
rfemur -4.82429 -3.81173 29.0624
rtibia 12.5266
rfoot -9.05886 -5.49203
rtoes 16.2175
lfemur -75.0897 -4.31344 -23.7026
ltibia 83.6987
lfoot -15.9325 -9.94611
ltoes 1.90599
279
root 2.72741 18.2269 5.24331 -173.915 -14.9023 180.747
lowerback 12.4626 3.1572 3.23875
upperback 1.81923 4.47904 0.655606
thorax -4.86039 2.07853 -1.85383
lowerneck -21.8054 -5.84477 -10.455
upperneck 26.6378 -6.75037 4.75891
head 13.1035 -3.61303 2.34814
rclavicle 9.54166e-015 -8.74653e-015
rhumerus 46.8283 -2.44614 -57.6443
rradius 49.652
rwrist 48.1419
rhand -16.3585 -1.39795
rfingers 7.12502
rthumb 9.85432 -31.1473
lclavicle 9.54166e-015 -8.74653e-015
lhumerus -6.45271 -20.4974 85.0382
lradius 79.729
lwrist -20.9941
lhand -21.7229 25.6617
lfingers 7.12502
lthumb 4.6763 55.5901
rfemur -4.97081 -3.65625 28.9159
rtibia 12.938
rfoot -9.09442 -5.3388
rtoes 15.8486
lfemur -75.0588 -4.24693 -23.8046
ltibia 83.8243
lfoot -16.0485 -9.69004
ltoes 2.42308
